<svg width="20" height="12" viewBox="0 0 20 12" fill="none" xmlns="http://www.w3.org/2000/svg">
<path fill-rule="evenodd" clip-rule="evenodd" d="M18.8037 0H17.6371C16.9927 0 16.4704 0.503674 16.4704 1.12499V10.8749C16.4704 11.4962 16.9927 11.9999 17.6371 11.9999H18.8037C19.448 11.9999 19.9704 11.4962 19.9704 10.8749V1.12499C19.9704 0.503674 19.448 0 18.8037 0ZM12.1469 2.62511H13.3136C13.9579 2.62511 14.4802 3.12878 14.4802 3.75009V10.875C14.4802 11.4963 13.9579 12 13.3136 12H12.1469C11.5026 12 10.9803 11.4963 10.9803 10.875V3.75009C10.9803 3.12878 11.5026 2.62511 12.1469 2.62511ZM7.82344 5.24986H6.65679C6.01246 5.24986 5.49013 5.75353 5.49013 6.37485V10.8748C5.49013 11.4961 6.01246 11.9998 6.65679 11.9998H7.82344C8.46777 11.9998 8.99009 11.4961 8.99009 10.8748V6.37485C8.99009 5.75353 8.46777 5.24986 7.82344 5.24986ZM2.33331 7.4998H1.16665C0.522329 7.4998 0 8.00347 0 8.62479V10.8748C0 11.4961 0.522329 11.9998 1.16665 11.9998H2.33331C2.97763 11.9998 3.49996 11.4961 3.49996 10.8748V8.62479C3.49996 8.00347 2.97763 7.4998 2.33331 7.4998Z" fill="white"/>
</svg>
