<svg width="20" height="20" viewBox="0 0 20 20" fill="none" xmlns="http://www.w3.org/2000/svg">
<path d="M8.125 8.75H1.875C1.70925 8.75 1.55027 8.68418 1.43307 8.56693C1.31581 8.44975 1.25 8.29077 1.25 8.125V1.875C1.25 1.70925 1.31582 1.55027 1.43307 1.43307C1.55025 1.31581 1.70923 1.25 1.875 1.25H8.125C8.29076 1.25 8.44973 1.31582 8.56693 1.43307C8.68419 1.55025 8.75 1.70923 8.75 1.875V8.125C8.75 8.29076 8.68418 8.44973 8.56693 8.56693C8.44975 8.68419 8.29077 8.75 8.125 8.75ZM2.5 7.5H7.5V2.5H2.5V7.5Z" fill="#1C1C1C"/>
<path d="M18.125 8.75H11.875C11.7092 8.75 11.5503 8.68418 11.4331 8.56693C11.3158 8.44975 11.25 8.29077 11.25 8.125V1.875C11.25 1.70925 11.3158 1.55027 11.4331 1.43307C11.5503 1.31581 11.7092 1.25 11.875 1.25H18.125C18.2908 1.25 18.4497 1.31582 18.5669 1.43307C18.6842 1.55025 18.75 1.70923 18.75 1.875V8.125C18.75 8.29076 18.6842 8.44973 18.5669 8.56693C18.4497 8.68419 18.2908 8.75 18.125 8.75ZM12.5 7.5H17.5V2.5H12.5V7.5Z" fill="#1C1C1C"/>
<path d="M8.125 18.75H1.875C1.70925 18.75 1.55027 18.6842 1.43307 18.5669C1.31581 18.4497 1.25 18.2908 1.25 18.125V11.875C1.25 11.7092 1.31582 11.5503 1.43307 11.4331C1.55025 11.3158 1.70923 11.25 1.875 11.25H8.125C8.29076 11.25 8.44973 11.3158 8.56693 11.4331C8.68419 11.5503 8.75 11.7092 8.75 11.875V18.125C8.75 18.2908 8.68418 18.4497 8.56693 18.5669C8.44975 18.6842 8.29077 18.75 8.125 18.75ZM2.5 17.5H7.5V12.5H2.5V17.5Z" fill="#1C1C1C"/>
<path d="M18.125 18.75H11.875C11.7092 18.75 11.5503 18.6842 11.4331 18.5669C11.3158 18.4497 11.25 18.2908 11.25 18.125V11.875C11.25 11.7092 11.3158 11.5503 11.4331 11.4331C11.5503 11.3158 11.7092 11.25 11.875 11.25H18.125C18.2908 11.25 18.4497 11.3158 18.5669 11.4331C18.6842 11.5503 18.75 11.7092 18.75 11.875V18.125C18.75 18.2908 18.6842 18.4497 18.5669 18.5669C18.4497 18.6842 18.2908 18.75 18.125 18.75ZM12.5 17.5H17.5V12.5H12.5V17.5Z" fill="#1C1C1C"/>
</svg>
