<svg width="43" height="43" viewBox="0 0 43 43" fill="none" xmlns="http://www.w3.org/2000/svg">
<path d="M32.895 25.8C32.895 27.3428 31.6407 28.595 30.0958 28.595H12.9041C11.3583 28.595 10.1049 27.3443 10.1049 25.8C10.1049 24.3303 11.2421 23.1236 12.6849 23.0132V18.0596C12.6849 13.1903 16.6308 9.245 21.4999 9.245C26.3689 9.245 30.3149 13.191 30.3149 18.0596V23.0132C31.7558 23.1237 32.8949 24.3298 32.8949 25.8H32.895ZM30.0992 25.155C29.0301 25.155 28.165 24.2904 28.165 23.2193V18.0596C28.165 14.3785 25.1816 11.395 21.5 11.395C17.8184 11.395 14.835 14.3777 14.835 18.0596V23.2193C14.835 24.2875 13.9682 25.155 12.9008 25.155C12.5449 25.155 12.255 25.445 12.255 25.8C12.255 26.1558 12.5447 26.445 12.9042 26.445H30.096C30.4541 26.445 30.7451 26.1546 30.7451 25.8C30.7451 25.4454 30.4541 25.155 30.0993 25.155H30.0992ZM17.4149 29.67H19.5649C19.5649 30.7387 20.4312 31.605 21.4999 31.605C22.5686 31.605 23.4349 30.7387 23.4349 29.67H25.5849C25.5849 31.9261 23.756 33.755 21.4999 33.755C19.2438 33.755 17.4149 31.9261 17.4149 29.67Z" fill="white"/>
<circle cx="28.5" cy="11.5" r="4.5" fill="#FF0000"/>
</svg>
