<svg width="24" height="24" viewBox="0 0 24 24" fill="none" xmlns="http://www.w3.org/2000/svg">
<path d="M12.002 2.88196V2.8829C12.0011 2.88196 12.0001 2.88196 11.9992 2.88196C11.8876 2.88196 11.7817 2.90915 11.6898 2.95883L2.7478 7.85363C2.51998 7.97832 2.41124 8.22113 2.41124 8.46301L2.40936 19.4336C2.42811 20.3655 3.18842 21.1155 4.12498 21.1155H8.53878C8.88846 21.1033 9.16784 20.8174 9.16784 20.4649V12.7633H14.8314V20.4649C14.8314 20.8183 15.1136 21.1061 15.4643 21.1146L19.8743 21.1155C20.8108 21.1155 21.5721 20.3655 21.5899 19.4336V8.41141C21.5871 8.18453 21.4652 7.97079 21.2514 7.85453L12.3094 2.95893C12.2176 2.91018 12.1126 2.88206 12.0019 2.88206L12.002 2.88196Z" fill="#1C1C1C"/>
</svg>
