<svg width="27" height="27" viewBox="0 0 27 27" fill="none" xmlns="http://www.w3.org/2000/svg">
<path d="M6.1875 10.125C6.1875 9.97587 6.24674 9.83279 6.35229 9.72731C6.45776 9.62175 6.60085 9.56251 6.75 9.56251H14.625C14.8259 9.56251 15.0116 9.66974 15.1122 9.84376C15.2126 10.0178 15.2126 10.2322 15.1122 10.4063C15.0116 10.5803 14.8259 10.6875 14.625 10.6875H6.75C6.60085 10.6875 6.45777 10.6283 6.35229 10.5227C6.24674 10.4173 6.1875 10.2742 6.1875 10.125ZM15.1875 12.9375C15.1875 12.7884 15.1283 12.6453 15.0227 12.5398C14.9172 12.4343 14.7741 12.375 14.625 12.375H6.74999C6.54908 12.375 6.36335 12.4822 6.26282 12.6563C6.16237 12.8303 6.16237 13.0447 6.26282 13.2188C6.36337 13.3928 6.54909 13.5 6.74999 13.5H14.625C14.7741 13.5 14.9172 13.4408 15.0227 13.3352C15.1283 13.2298 15.1875 13.0867 15.1875 12.9375ZM24.75 12.9375V19.125C24.7495 19.5724 24.5716 20.0014 24.2552 20.3177C23.9389 20.6341 23.5099 20.812 23.0625 20.8125H22.5V23.0625C22.4999 23.2058 22.4452 23.3437 22.347 23.448C22.2487 23.5523 22.1143 23.6153 21.9713 23.624C21.8283 23.6327 21.6874 23.5865 21.5771 23.4949L18.3587 20.8126H12.9376C12.4902 20.8121 12.0612 20.6342 11.7449 20.3178C11.4285 20.0015 11.2506 19.5725 11.2501 19.1251V17.4376H9.25884L6.05192 21.1783C5.95164 21.2951 5.80775 21.3658 5.65387 21.3736C5.50006 21.3815 5.34967 21.326 5.23798 21.2199C5.12618 21.1139 5.06281 20.9667 5.06264 20.8126V17.4376H4.50014C4.05277 17.4371 3.62378 17.2592 3.30746 16.9428C2.99106 16.6265 2.81315 16.1975 2.81264 15.7501V7.87512C2.81316 7.42775 2.99106 6.99877 3.30746 6.68244C3.62378 6.36605 4.05277 6.18814 4.50014 6.18762H16.8751C17.3225 6.18815 17.7515 6.36604 18.0678 6.68244C18.3842 6.99877 18.5621 7.42775 18.5626 7.87512V11.2501H23.0626C23.51 11.2506 23.939 11.4285 24.2553 11.7449C24.5717 12.0613 24.7496 12.4903 24.7501 12.9376L24.75 12.9375ZM16.875 16.3125C17.0241 16.3124 17.1671 16.2531 17.2726 16.1476C17.3781 16.0422 17.4374 15.8992 17.4375 15.75V7.87502C17.4374 7.72587 17.3781 7.58288 17.2726 7.4774C17.1671 7.37192 17.0241 7.3126 16.875 7.31251H4.5C4.35085 7.3126 4.20786 7.37193 4.10238 7.4774C3.9969 7.58287 3.93758 7.72586 3.9375 7.87502V15.75C3.93758 15.8992 3.99691 16.0422 4.10238 16.1476C4.20785 16.2531 4.35085 16.3124 4.5 16.3125H5.625C5.77415 16.3125 5.91723 16.3718 6.02271 16.4773C6.12826 16.5828 6.1875 16.7259 6.1875 16.875V19.292L8.57318 16.5094C8.67979 16.3845 8.8358 16.3126 8.99998 16.3125L16.875 16.3125ZM23.625 12.9375C23.6249 12.7884 23.5656 12.6454 23.4601 12.5399C23.3546 12.4344 23.2116 12.3751 23.0625 12.375H18.5625V15.75C18.562 16.1974 18.3841 16.6264 18.0677 16.9427C17.7513 17.2591 17.3224 17.437 16.875 17.4375H12.375V19.125C12.3751 19.2742 12.4344 19.4172 12.5399 19.5226C12.6453 19.6281 12.7883 19.6874 12.9375 19.6875H18.5625C18.6942 19.6875 18.8216 19.7336 18.9229 19.8177L21.3749 21.8617V20.25C21.3749 20.1009 21.4341 19.9578 21.5397 19.8523C21.6452 19.7468 21.7883 19.6875 21.9374 19.6875H23.0624C23.2116 19.6874 23.3546 19.6281 23.46 19.5226C23.5655 19.4172 23.6248 19.2742 23.6249 19.125L23.625 12.9375Z" fill="#1C1C1C"/>
</svg>
