<svg width="18" height="18" viewBox="0 0 18 18" fill="none" xmlns="http://www.w3.org/2000/svg">
<path d="M8.99999 4.47914C7.75189 4.47914 6.53189 4.84928 5.49404 5.54267C4.45628 6.23612 3.64739 7.22162 3.16979 8.37467C2.69219 9.52779 2.56721 10.7966 2.81072 12.0207C3.05423 13.2448 3.6553 14.3693 4.53782 15.2517C5.42036 16.1343 6.54482 16.7352 7.76897 16.9787C8.99305 17.2221 10.262 17.0971 11.415 16.6195C12.5681 16.1419 13.5536 15.333 14.247 14.2952C14.9404 13.2575 15.3105 12.0374 15.3105 10.7893C15.3086 9.11619 14.6431 7.51224 13.4601 6.32919C12.2771 5.14619 10.6731 4.48074 8.99999 4.47894V4.47914ZM8.99999 16.2C7.56503 16.2 6.18884 15.6299 5.17424 14.6152C4.15963 13.6006 3.58964 12.2244 3.58964 10.7895C3.58964 9.35453 4.15964 7.97834 5.17424 6.96374C6.18892 5.94912 7.56509 5.37914 8.99999 5.37914C10.4349 5.37914 11.8111 5.94914 12.8257 6.96374C13.8404 7.97835 14.4103 9.35444 14.4105 10.7895C14.4089 12.224 13.8383 13.5993 12.8239 14.6136C11.8096 15.6279 10.4343 16.1985 8.99984 16.2001L8.99999 16.2Z" fill="black"/>
<path d="M12.5689 8.49703L13.355 8.04352L13.5555 8.39116L12.7695 8.84467L12.5689 8.49703Z" fill="black"/>
<path d="M10.9448 7.02L11.3986 6.23413L11.7462 6.43482L11.2923 7.22068L10.9448 7.02Z" fill="black"/>
<path d="M8.79929 5.64526H9.20066V6.55329H8.79929V5.64526Z" fill="black"/>
<path d="M3.85559 10.5889H4.76368V10.9903H3.85559V10.5889Z" fill="black"/>
<path d="M4.44464 13.188L5.23033 12.7343L5.43101 13.0818L4.64533 13.5355L4.44464 13.188Z" fill="black"/>
<path d="M4.44449 8.39116L4.64505 8.04358L5.43092 8.49709L5.23035 8.84467L4.44449 8.39116Z" fill="black"/>
<path d="M6.25394 15.144L6.70763 14.3583L7.05521 14.559L6.60152 15.3447L6.25394 15.144Z" fill="black"/>
<path d="M6.25394 6.4347L6.6017 6.23413L7.0551 7.02016L6.70734 7.22073L6.25394 6.4347Z" fill="black"/>
<path d="M8.79929 15.0255H9.20066V15.9334H8.79929V15.0255Z" fill="black"/>
<path d="M10.9449 14.5591L11.2925 14.3586L11.746 15.1445L11.3984 15.3451L10.9449 14.5591Z" fill="black"/>
<path d="M12.5689 13.0821L12.7695 12.7343L13.5555 13.1877L13.355 13.5354L12.5689 13.0821Z" fill="black"/>
<path d="M13.2361 10.5889H14.1442V10.9903H13.2361V10.5889Z" fill="black"/>
<path d="M9 3.63659C9.19629 3.63659 9.39264 3.64397 9.5853 3.66067V2.407L10.2711 2.05678C10.3342 2.01869 10.3713 1.94914 10.368 1.87549V1.09555C10.3778 0.999103 10.309 0.912323 10.2128 0.899963H7.78719C7.69098 0.912327 7.62219 0.999104 7.63197 1.09555V1.87549C7.62863 1.94914 7.66583 2.01869 7.72888 2.05678L8.41467 2.407V3.66067C8.60727 3.64403 8.80362 3.63659 8.99997 3.63659H9Z" fill="black"/>
<path d="M13.0397 9.64652C13.0367 9.62871 13.0268 9.61283 13.0122 9.60235C12.9975 9.59186 12.9793 9.58764 12.9615 9.59057L9.53264 10.1576C9.35052 10.0034 9.11076 9.93516 8.87475 9.97026C8.63868 10.0054 8.42921 10.1405 8.29989 10.341C8.17052 10.5416 8.1339 10.7882 8.19929 11.0177C8.26468 11.2472 8.42582 11.4374 8.64144 11.5397C8.85707 11.642 9.10626 11.6464 9.32541 11.5518C9.54449 11.4573 9.71225 11.2729 9.78573 11.0458L12.9986 9.72043C13.0278 9.70836 13.0448 9.67772 13.0397 9.64655L13.0397 9.64652Z" fill="black"/>
<path d="M2.56469 5.48685L3.46651 4.55175H3.46645C3.52557 4.49052 3.60655 4.45519 3.69163 4.45366C3.77677 4.45214 3.85897 4.48443 3.92026 4.54355L4.29837 4.90818C4.3596 4.9673 4.39493 5.04828 4.39645 5.13336C4.39798 5.21844 4.36563 5.3007 4.30657 5.36193L3.40475 6.29703C3.34569 6.35832 3.26472 6.3936 3.17958 6.39512C3.0945 6.3967 3.01229 6.36436 2.951 6.3053L2.5729 5.94062C2.51161 5.88155 2.47634 5.80052 2.47481 5.71544C2.47329 5.63036 2.50557 5.54814 2.56469 5.48685Z" fill="black"/>
<path d="M13.7017 4.90817L14.0799 4.54349C14.1411 4.48443 14.2233 4.45209 14.3085 4.45367C14.3936 4.45519 14.4745 4.49047 14.5336 4.55176L15.4354 5.48692C15.4945 5.54815 15.5268 5.63041 15.5252 5.71549C15.5237 5.80056 15.4884 5.88154 15.4271 5.94067L15.049 6.3053C14.9877 6.36436 14.9055 6.39671 14.8204 6.39518C14.7353 6.3936 14.6543 6.35833 14.5952 6.29704L13.6935 5.36188C13.6344 5.30065 13.6021 5.21844 13.6036 5.13331C13.6052 5.04823 13.6405 4.96726 13.7017 4.90819L13.7017 4.90817Z" fill="black"/>
</svg>
