<svg width="17" height="19" viewBox="0 0 17 19" fill="none" xmlns="http://www.w3.org/2000/svg">
<path d="M1.33963 19C1.27189 19 1.20423 18.9952 1.13733 18.9858C0.406015 18.8824 -0.0962008 18.2502 0.0155614 17.5737L0.841758 12.5824C1.01512 10.0262 3.26595 8.66774 6.50237 8.66774H10.4978C13.7316 8.66774 15.9852 10.027 16.1541 12.5459L16.9846 17.5737C16.9948 17.6356 17 17.6982 17 17.7609C17 18.4452 16.4003 19 15.6606 19L1.33963 19ZM1.33963 18.1739H15.6607C15.9072 18.1739 16.1071 17.989 16.1071 17.7609C16.1071 17.7399 16.1054 17.7191 16.102 17.6985L15.2673 12.6342C15.1286 10.5892 13.3124 9.49385 10.4978 9.49385H6.50239C3.6853 9.49385 1.87171 10.5884 1.72866 12.6707L0.89821 17.6985C0.860957 17.9239 1.02839 18.1347 1.27214 18.1692C1.29447 18.1723 1.317 18.1739 1.3396 18.1739L1.33963 18.1739ZM8.50023 7.83005C6.16302 7.83005 4.26834 6.07724 4.26834 3.91503C4.26834 1.75281 6.16302 0 8.50023 0C10.8375 0 12.7321 1.75281 12.7321 3.91503C12.7321 6.07724 10.8375 7.83005 8.50023 7.83005ZM8.50023 7.00396C10.3442 7.00396 11.8392 5.62096 11.8392 3.91503C11.8392 2.20914 10.3442 0.826094 8.50023 0.826094C6.6561 0.826094 5.1613 2.20909 5.1613 3.91503C5.1613 5.62108 6.65623 7.00396 8.50023 7.00396Z" fill="#1C1C1C"/>
</svg>
