<svg width="20" height="19" viewBox="0 0 20 19" fill="none" xmlns="http://www.w3.org/2000/svg">
<path d="M9.99587 0V0.00097691C9.99489 0 9.99392 0 9.99294 0C9.87669 0 9.7663 0.0283308 9.67055 0.0801075L0.352662 5.18067C0.115265 5.3106 0.00195382 5.56362 0.00195382 5.81567L0 17.2474C0.0195382 18.2185 0.811809 19 1.78774 19H6.38708C6.75146 18.9873 7.04259 18.6894 7.04259 18.322V10.2967H12.9443V18.322C12.9443 18.6903 13.2383 18.9902 13.6037 18.999L18.1991 19C19.175 19 19.9683 18.2185 19.9868 17.2474V5.76189C19.9839 5.52548 19.8569 5.30275 19.6341 5.1816L10.3162 0.080209C10.2205 0.0294097 10.1111 0.000101443 9.99582 0.000101443L9.99587 0ZM9.99294 1.44778V1.44876L18.6298 6.17586L18.621 17.2258C18.6141 17.4486 18.4334 17.6283 18.2097 17.6342L14.2981 17.6352V9.61856C14.2981 9.2444 13.9953 8.94157 13.6211 8.94157H13.6065L13.6055 8.94254L6.36561 8.94157H6.36464C5.99146 8.94157 5.6886 9.24538 5.6886 9.61856V17.6352L1.77701 17.6342C1.5533 17.6283 1.37257 17.4486 1.36574 17.2258L1.35694 6.17586L9.99272 1.44772V1.4487L9.99294 1.44778Z" fill="#1C1C1C"/>
</svg>
